<svg width="205px" height="79px" viewBox="0 0 205 79" version="1.1" xmlns="http://www.w3.org/2000/svg" xmlns:xlink="http://www.w3.org/1999/xlink">
    <g id="Page-1" stroke="none" stroke-width="1" fill="none" fill-rule="evenodd">
        <g id="Pixel-2" transform="translate(-104.000000, -273.000000)" stroke="#5D5956">
            <g id="Group" transform="translate(104.335896, 273.898202)">
                <polygon id="Path" fill="#0E0D0C" points="59.9825727 0.760019293 83.6471387 4.51593657 81.7075092 11.5112072 81.0070288 12.4124338 76.3292013 13.6790641 75.6308367 15.3261636 128.699442 19.4684237 132.903476 19.365564 135.340004 18.4543495 135.586416 17.2471215 133.512815 16.5593299 131.742527 16.6087583 129.617368 16.9912192 128.084307 17.0333208 125.828349 14.8899062 125.778051 14.2270096 126.440431 13.5512358 149.356962 3.10842081 152.983866 9.50196554 153.392267 9.87120837 154.436022 25.0343084 153.690664 25.6807997 151.970223 25.7094503 148.666605 25.1346038 145.187746 25.6047071 144.837042 26.0159852 156.369371 45.8579441 157.817964 46.4265881 159.605694 46.4384779 161.190455 46.1584034 161.948193 45.3814153 164.844055 43.8865591 164.028939 41.6261791 164.31374 40.9165446 165.503533 40.6313837 167.042694 40.6318971 168.800283 40.9194465 195.009518 49.0115341 202.878592 59.7381861 203.400173 60.2469416 203.131663 60.6838003 156.947504 63.0414966 151.491111 58.028872 150.711146 57.8207575 121.671142 63.817009 122.316952 68.6047414 122.347596 69.1363335 99.0867486 77.4396348 98.2381769 77.4062463 78.9046766 68.6313627 79.9705325 62.4342758 48.4075546 53.9299663 46.6258109 57.7966831 43.8350244 58.9819704 0.788777115 54.0845274 8.01836594 44.5008505 10.2163716 43.5072627 38.382675 38.6278027 34.8167922 43.2450945 43.5459943 44.4604704 44.5089122 40.264207 51.4406233 32.7542106 61.6702026 19.7567855 59.0459475 18.7192276 57.1201104 19.4567623 54.6546006 20.2852706 52.8973508 20.3658956 52.0416067 20.1473415 55.2375917 10.688989 56.3781622 7.15098867"></polygon>
                <path d="M126.032495,14.0831757 L123.826616,7.45534791" id="Path-2"></path>
                <path d="M128.084307,17.0333208 L125.988515,9.49080281" id="Path-3"></path>
                <polygon id="Path" fill="#0E0D0C" points="60.9301877 0.146446087 83.4009896 4.39944147 82.7595143 5.22992776 78.4731038 6.40689626 77.8343255 7.92350721 126.464832 11.5843332 130.317073 11.4780756 132.550526 10.6347282 132.777472 9.52581175 130.877925 8.90009469 129.255627 8.95031565 127.307874 9.30728689 125.902994 9.35015203 123.837163 7.38813185 123.791519 6.77955502 124.399029 6.15726403 147.840081 2.40631318 148.730891 2.37147556 149.10468 2.70921515 150.038905 16.6184882 149.355118 17.2138682 147.778951 17.2452962 144.7532 16.7276576 141.565524 17.1694274 141.243741 17.547925 151.778632 35.7175114 153.104044 36.2341038 154.740786 36.238693 156.192175 35.9761679 159.541197 33.8794442 158.798725 31.8089056 159.060733 31.1570195 160.150728 30.8914301 161.560153 30.886695 163.169065 31.1444724 194.323377 48.2722291 194.799352 48.7363804 194.552426 49.1377117 152.282082 51.480731 147.295686 46.9027439 146.582109 46.7147662 111.124881 54.1776899 110.549196 54.6263569 110.561647 55.0884126 113.024123 56.3922556 113.994157 56.5581621 116.912949 56.152838 118.228107 56.1859424 119.715582 56.3548679 120.588614 56.7275282 120.616355 57.2156043 99.3353069 64.9428674 98.5591331 64.9158999 81.31181 57.1374888 82.7569195 56.1545555 90.8632757 54.4697875 90.8858405 53.8063362 90.0821457 53.4483424 51.5490854 43.1589157 50.1726032 43.8896184 51.4883701 46.0919864 51.320804 47.0937423 48.7686391 48.1956417 9.36024702 43.8500684 39.5874534 29.1365756 43.7415618 29.4770539 40.4850587 33.7405592 48.4797975 34.8291441 49.3544703 30.963009 55.6909567 24.027888 65.0453654 12.0372052 62.639403 11.0898378 60.8756275 11.7738278 58.6175534 12.5431292 57.0074885 12.6222571 56.2230452 12.423515 59.1385574 3.71052009 60.1792274 0.451886469"></polygon>
                <path d="M150.038905,16.6184882 L154.069086,25.2374884" id="Path-4"></path>
                <path d="M152.282082,51.480731 L156.947504,63.0414966" id="Path-5"></path>
                <path d="M146.837574,46.8345327 L151.289768,57.8654223" id="Path-6"></path>
                <path d="M52.0416067,20.1473415 L56.2579408,12.5533573" id="Path-7"></path>
                <path d="M59.0459475,18.7192276 L62.639403,11.0898378" id="Path-8"></path>
                <path d="M148.91479,17.351392 L151.970223,25.7094503" id="Path-9"></path>
                <path d="M43.8350244,58.9819704 L48.7686391,48.1956417" id="Path-10"></path>
                <path d="M98.9992298,64.9394607 L98.7087403,77.4340193" id="Path-11"></path>
                <path d="M120.569436,57.026927 L122.306289,68.4145286" id="Path-12"></path>
                <path d="M80.852014,57.253812 L78.9012081,69.0095567" id="Path-13"></path>
                <path d="M46.6136556,57.9105028 L51.3144999,47.2230851" id="Path-14"></path>
            </g>
        </g>
    </g>
</svg>
